<svg width="30" height="30" viewBox="0 0 30 30" fill="none" xmlns="http://www.w3.org/2000/svg">
<rect x="0.75" y="0.75" width="28.5" height="28.5" rx="14.25" stroke="#0D0D0D" stroke-opacity="0.4" stroke-width="1.5"/>
<path d="M6.772 20V12.795H4.341V11.937H10.237V12.795H7.806V20H6.772ZM14.3437 20.154C12.3087 20.154 10.9007 18.526 10.9007 15.941C10.9007 13.356 12.3087 11.794 14.3437 11.794C16.3677 11.794 17.7757 13.367 17.7757 15.941C17.7757 18.526 16.3677 20.154 14.3437 20.154ZM14.3437 19.252C15.7847 19.252 16.7417 17.954 16.7417 15.941C16.7417 13.928 15.7847 12.685 14.3437 12.685C12.8917 12.685 11.9457 13.928 11.9457 15.941C11.9457 17.954 12.8917 19.252 14.3437 19.252ZM19.5268 20V11.937H21.8258C23.6298 11.937 24.8508 12.542 24.8508 14.313C24.8508 16.007 23.6408 16.799 21.8698 16.799H20.5498V20H19.5268ZM20.5498 15.974H21.7488C23.1568 15.974 23.8388 15.457 23.8388 14.313C23.8388 13.136 23.1238 12.773 21.6938 12.773H20.5498V15.974Z" fill="#0D0D0D" fill-opacity="0.4"/>
</svg>
